<?xml version="1.0" encoding="UTF-8"?>
<svg id="Layer_1" xmlns="http://www.w3.org/2000/svg" version="1.1" viewBox="0 0 640 505">
  <!-- Generator: Adobe Illustrator 29.6.1, SVG Export Plug-In . SVG Version: 2.1.1 Build 9)  -->
  <defs>
    <style>
      .st0 {
        fill: #bfda71;
      }
    </style>
  </defs>
  <path class="st0" d="M320,7.6c-88.4,0-159.1,40.2-210.6,88.1C58.2,143.3,24,200,7.7,239.1c-3.6,8.6-3.6,18.3,0,26.9,16.3,39,50.5,95.9,101.7,143.4,51.5,47.8,122.2,88.1,210.6,88.1s159.1-40.2,210.6-88.1c51.2-47.6,85.4-104.3,101.7-143.4,3.6-8.6,3.6-18.3,0-26.9-16.3-39-50.5-95.9-101.7-143.4C479.1,47.9,408.4,7.6,320,7.6ZM162.5,252.5c0-86.9,70.5-157.5,157.5-157.5s157.5,70.5,157.5,157.5-70.5,157.5-157.5,157.5-157.5-70.5-157.5-157.5ZM320,182.5c0,38.6-31.4,70-70,70s-24.4-3.3-34.7-9.2c-1.1,11.9-.1,24.2,3.2,36.3,15,56,72.6,89.2,128.6,74.2,56-15,89.2-72.6,74.2-128.6-13.3-50-60.7-81.8-110.5-77.4,5.8,10.2,9.2,22,9.2,34.7Z"/>
</svg>